<svg width="18" height="18" viewBox="0 0 18 18" fill="none" xmlns="http://www.w3.org/2000/svg">
<path fill-rule="evenodd" clip-rule="evenodd" d="M15.6873 4.04877C15.6876 4.04877 15.687 4.05154 15.6848 4.05706C15.6859 4.05153 15.687 4.04877 15.6873 4.04877ZM15.6672 4.09084C15.6447 4.0538 15.5987 3.99236 15.5082 3.90678C15.2779 3.68895 14.8641 3.42368 14.2284 3.16939C12.9653 2.66414 11.1174 2.31812 9.00006 2.31812C6.88269 2.31812 5.03484 2.66414 3.77172 3.16939C3.136 3.42368 2.7222 3.68895 2.49187 3.90678C2.40138 3.99236 2.35543 4.0538 2.33289 4.09084C2.35543 4.12788 2.40138 4.18932 2.49187 4.2749C2.7222 4.49273 3.136 4.75801 3.77172 5.01229C5.03484 5.51754 6.88269 5.86357 9.00006 5.86357C11.1174 5.86357 12.9653 5.51754 14.2284 5.01229C14.8641 4.75801 15.2779 4.49273 15.5082 4.2749C15.5987 4.18932 15.6447 4.12789 15.6672 4.09084ZM2.3128 4.04877C2.31307 4.04877 2.31418 4.05154 2.31532 4.05709C2.31311 4.05155 2.31254 4.04877 2.3128 4.04877ZM2.3128 4.13291C2.31254 4.13291 2.31311 4.13014 2.31532 4.1246C2.31418 4.13015 2.31307 4.13292 2.3128 4.13291ZM15.6848 4.12461C15.687 4.13014 15.6876 4.13291 15.6873 4.13291C15.687 4.13292 15.6859 4.13015 15.6848 4.12461ZM9.00006 7.36357C13.5188 7.36357 17.1819 5.89832 17.1819 4.09084C17.1819 2.28336 13.5188 0.818115 9.00006 0.818115C4.48136 0.818115 0.818237 2.28336 0.818237 4.09084C0.818237 5.89832 4.48136 7.36357 9.00006 7.36357ZM2.07698 7.47294C1.536 7.19342 1.10604 6.88103 0.818237 6.54542V8.26096C0.818237 9.56721 1.83303 10.576 3.22092 11.2243C4.63831 11.8864 6.62443 12.2727 9.00006 12.2727C11.3757 12.2727 13.3618 11.8864 14.7792 11.2243C16.1671 10.576 17.1819 9.56721 17.1819 8.26096V6.54541C16.8941 6.88103 16.4641 7.19342 15.9231 7.47294V8.26096C15.9231 8.82049 15.479 9.5008 14.2493 10.0752C13.0491 10.6358 11.259 11.0058 9.00006 11.0058C6.74113 11.0058 4.95102 10.6358 3.75083 10.0752C2.52113 9.5008 2.07698 8.82049 2.07698 8.26096V7.47294ZM0.818237 11.4546C1.10604 11.7902 1.536 12.1026 2.07698 12.3821V13.1701C2.07698 13.7297 2.52113 14.41 3.75083 14.9844C4.95102 15.545 6.74113 15.915 9.00006 15.915C11.259 15.915 13.0491 15.545 14.2493 14.9844C15.479 14.41 15.9231 13.7297 15.9231 13.1701V12.3821C16.4641 12.1026 16.8941 11.7902 17.1819 11.4546V13.1701C17.1819 14.4764 16.1671 15.4852 14.7792 16.1335C13.3618 16.7956 11.3757 17.1819 9.00006 17.1819C6.62443 17.1819 4.63831 16.7956 3.22092 16.1335C1.83303 15.4852 0.818237 14.4764 0.818237 13.1701V11.4546Z" fill="#868686"/>
</svg>
